<mxfile host="65bd71144e">
    <diagram id="I_BSXLJdLKPPDa6zRZCR" name="Page-1">
        <mxGraphModel dx="540" dy="301" grid="1" gridSize="10" guides="1" tooltips="1" connect="1" arrows="1" fold="1" page="1" pageScale="1" pageWidth="850" pageHeight="1100" math="0" shadow="0">
            <root>
                <mxCell id="0"/>
                <mxCell id="1" parent="0"/>
                <mxCell id="3" value="REP-P" style="strokeWidth=2;html=1;shape=mxgraph.flowchart.database;whiteSpace=wrap;" vertex="1" parent="1">
                    <mxGeometry x="570" y="160" width="70" height="100" as="geometry"/>
                </mxCell>
                <mxCell id="7" value="FACE ID" style="strokeWidth=2;html=1;shape=mxgraph.flowchart.stored_data;whiteSpace=wrap;direction=south;" vertex="1" parent="1">
                    <mxGeometry x="300" y="160" width="60" height="100" as="geometry"/>
                </mxCell>
                <mxCell id="11" value="" style="edgeStyle=none;orthogonalLoop=1;jettySize=auto;html=1;shape=link;width=30;startArrow=none;" edge="1" parent="1" source="12" target="3">
                    <mxGeometry width="80" relative="1" as="geometry">
                        <mxPoint x="370" y="209.68" as="sourcePoint"/>
                        <mxPoint x="450" y="209.68" as="targetPoint"/>
                        <Array as="points"/>
                    </mxGeometry>
                </mxCell>
                <mxCell id="16" value="" style="edgeStyle=none;orthogonalLoop=1;jettySize=auto;html=1;shape=link;width=30;endArrow=none;" edge="1" parent="1" source="7" target="12">
                    <mxGeometry width="80" relative="1" as="geometry">
                        <mxPoint x="360" y="210.00000000000006" as="sourcePoint"/>
                        <mxPoint x="570" y="210.00000000000006" as="targetPoint"/>
                        <Array as="points"/>
                    </mxGeometry>
                </mxCell>
                <mxCell id="12" value="16011777381" style="text;html=1;align=center;verticalAlign=middle;resizable=0;points=[];autosize=1;strokeColor=none;fillColor=none;" vertex="1" parent="1">
                    <mxGeometry x="400" y="195" width="100" height="30" as="geometry"/>
                </mxCell>
            </root>
        </mxGraphModel>
    </diagram>
</mxfile>